HIERARCHY
ROOT Hips
{
	OFFSET 0.000000 0.000000 0.000000
	CHANNELS 6 Xposition Yposition Zposition Zrotation Yrotation Xrotation 
	JOINT LHipJoint
	{
		OFFSET 0.000000 0.000000 0.000000
		CHANNELS 3 Zrotation Yrotation Xrotation
		JOINT LeftUpLeg
		{
			OFFSET 1.363060 -1.794630 0.839290
			CHANNELS 3 Zrotation Yrotation Xrotation
			JOINT LeftLeg
			{
				OFFSET 2.448110 -6.726130 0.000000
				CHANNELS 3 Zrotation Yrotation Xrotation
				JOINT LeftFoot
				{
					OFFSET 2.562200 -7.039590 0.000000
					CHANNELS 3 Zrotation Yrotation Xrotation
					JOINT LeftToeBase
					{
						OFFSET 0.157640 -0.433110 2.322550
						CHANNELS 3 Zrotation Yrotation Xrotation
						End Site
						{
							OFFSET 0.000000 0.000000 0.000000
						}
					}
				}
			}
		}
	}
	JOINT RHipJoint
	{
		OFFSET 0.000000 0.000000 0.000000
		CHANNELS 3 Zrotation Yrotation Xrotation
		JOINT RightUpLeg
		{
			OFFSET -1.305520 -1.794630 0.839290
			CHANNELS 3 Zrotation Yrotation Xrotation
			JOINT RightLeg
			{
				OFFSET -2.542530 -6.985550 0.000000
				CHANNELS 3 Zrotation Yrotation Xrotation
				JOINT RightFoot
				{
					OFFSET -2.568260 -7.056230 0.000000
					CHANNELS 3 Zrotation Yrotation Xrotation
					JOINT RightToeBase
					{
						OFFSET -0.164730 -0.452590 2.363150
						CHANNELS 3 Zrotation Yrotation Xrotation
						End Site
						{
							OFFSET 0.000000 0.000000 0.000000
						}
					}
				}
			}
		}
	}
	JOINT LowerBack
	{
		OFFSET 0.000000 0.000000 0.000000
		CHANNELS 3 Zrotation Yrotation Xrotation
		JOINT Spine
		{
			OFFSET 0.028270 2.035590 -0.193380
			CHANNELS 3 Zrotation Yrotation Xrotation
			JOINT Spine1
			{
				OFFSET 0.056720 2.048850 -0.042750
				CHANNELS 3 Zrotation Yrotation Xrotation
				JOINT Neck
				{
					OFFSET 0.000000 0.000000 0.000000
					CHANNELS 3 Zrotation Yrotation Xrotation
					JOINT Neck1
					{
						OFFSET -0.054170 1.746240 0.172020
						CHANNELS 3 Zrotation Yrotation Xrotation
						JOINT Head
						{
							OFFSET 0.104070 1.761360 -0.123970
							CHANNELS 3 Zrotation Yrotation Xrotation
							End Site
							{
								OFFSET 0.000000 0.000000 0.000000
							}
						}
					}
				}
				JOINT LeftShoulder
				{
					OFFSET 0.000000 0.000000 0.000000
					CHANNELS 3 Zrotation Yrotation Xrotation
					JOINT LeftArm
					{
						OFFSET 3.362410 1.200890 -0.311210
						CHANNELS 3 Zrotation Yrotation Xrotation
						JOINT LeftForeArm
						{
							OFFSET 4.983000 -0.000000 -0.000000
							CHANNELS 3 Zrotation Yrotation Xrotation
							JOINT LeftHand
							{
								OFFSET 3.483560 -0.000000 -0.000000
								CHANNELS 3 Zrotation Yrotation Xrotation
								JOINT LeftFingerBase
								{
									OFFSET 0.000000 0.000000 0.000000
									CHANNELS 3 Zrotation Yrotation Xrotation
									JOINT LeftHandIndex1
									{
										OFFSET 0.715260 -0.000000 -0.000000
										CHANNELS 3 Zrotation Yrotation Xrotation
										End Site
										{
											OFFSET 0.000000 0.000000 0.000000
										}
									}
								}
								JOINT LThumb
								{
									OFFSET 0.000000 0.000000 0.000000
									CHANNELS 3 Zrotation Yrotation Xrotation
									End Site
									{
										OFFSET 0.000000 0.000000 0.000000
									}
								}
							}
						}
					}
				}
				JOINT RightShoulder
				{
					OFFSET 0.000000 0.000000 0.000000
					CHANNELS 3 Zrotation Yrotation Xrotation
					JOINT RightArm
					{
						OFFSET -3.136600 1.374050 -0.404650
						CHANNELS 3 Zrotation Yrotation Xrotation
						JOINT RightForeArm
						{
							OFFSET -5.241900 -0.000000 -0.000000
							CHANNELS 3 Zrotation Yrotation Xrotation
							JOINT RightHand
							{
								OFFSET -3.444170 -0.000000 -0.000000
								CHANNELS 3 Zrotation Yrotation Xrotation
								JOINT RightFingerBase
								{
									OFFSET 0.000000 0.000000 0.000000
									CHANNELS 3 Zrotation Yrotation Xrotation
									JOINT RightHandIndex1
									{
										OFFSET -0.622530 -0.000000 -0.000000
										CHANNELS 3 Zrotation Yrotation Xrotation
										End Site
										{
											OFFSET 0.000000 0.000000 0.000000
										}
									}
								}
								JOINT RThumb
								{
									OFFSET 0.000000 0.000000 0.000000
									CHANNELS 3 Zrotation Yrotation Xrotation
									End Site
									{
										OFFSET 0.000000 0.000000 0.000000
									}
								}
							}
						}
					}
				}
			}
		}
	}
}
MOTION
Frames: 4
Frame Time: 0.008333
-9.154316 16.573585 0.873053 -164.343526 89.038690 -147.386565 -11.636114 2.785047 -1.828461 -2.979758 1.453896 -0.623245 -0.695681 2.011237 29.883376 1.236210 7.714975 2.127731 1.137800 -0.000001 -75.531400 8.759462 1.270947 0.986916 1.623819 1.413392 -41.635972 2.166311 -0.929604 13.810440 0.400290 2.114262 14.813735 0.272900 0.000000 -54.529900 5.914866 -3.545768 2.719910 -0.008839 -3.919423 -1.920478 -8.611805 -3.819432 1.868016 9.858826 -8.592184 -6.966499 -4.791551 -0.356701 0.027261 0.000000 0.000000 0.000000 0.215744 6.894391 2.763387 -32.644858 -11.095754 2.055903 -1.097352 -75.290690 0.033321 -10.625230 2.060593 -0.175242 0.013123 0.171254 0.000000 0.000000 0.000000 0.000000 0.000000 0.000000 0.000000 21.858677 -7.790994 0.824362 69.037803 -7.543332 -15.761949 3.771400 23.793562 0.015320 5.942382 7.299036 0.379519 0.059284 -0.067774 -0.000000 0.000000 0.000000 0.000000 0.000000 0.000000 0.000000 
-8.970892 16.591467 0.885830 -155.425887 88.696403 -138.474290 -12.097058 2.766572 -1.831192 -2.183353 2.024322 -1.941044 -0.482366 2.189591 32.432805 1.384254 8.610951 3.614040 1.441300 -0.000000 -72.936699 8.456400 1.115636 0.780018 2.546497 1.119636 -41.591285 2.232782 -1.027911 15.256724 0.412828 2.084685 14.203023 0.228000 0.000000 -54.153800 6.431701 -3.479787 2.857605 0.086029 -3.878230 -1.933701 -8.586020 -3.784546 1.811642 9.790023 -8.168754 -6.845686 -4.850348 -0.361089 0.055665 0.000000 0.000000 0.000000 -0.008123 6.965546 2.747310 -34.228575 -10.310070 2.558064 -1.187451 -74.630295 0.031293 -10.494180 2.043707 -0.171968 0.002137 0.163602 0.000000 0.000000 0.000000 0.000000 0.000000 0.000000 0.000000 21.929294 -7.391412 0.827884 68.733038 -6.585251 -15.760780 3.782800 23.125398 0.015257 5.732044 7.362365 0.369116 0.059651 -0.068554 -0.000000 0.000000 0.000000 0.000000 0.000000 0.000000 0.000000 
-8.791500 16.611991 0.900536 -151.318437 88.205973 -134.379565 -12.459432 2.697103 -1.859047 -1.435486 2.637382 -3.349115 -0.273351 2.342362 35.068781 1.563185 9.716644 4.923828 1.803000 -0.000000 -69.000900 8.225150 0.963661 0.597325 3.420683 0.788714 -41.445500 2.297730 -1.115239 16.555297 0.401922 1.950251 13.304433 0.140400 0.000000 -53.926500 6.936228 -3.431558 3.001026 0.186273 -3.848881 -1.943869 -8.556954 -3.762849 1.751093 9.762835 -7.727275 -6.697298 -4.905281 -0.365361 0.091523 0.000000 0.000000 0.000000 -0.153471 6.976157 2.725490 -35.912386 -9.500096 3.111402 -1.283860 -73.854309 0.029349 -10.374185 2.032463 -0.169401 -0.007802 0.155888 0.000000 0.000000 0.000000 0.000000 0.000000 0.000000 0.000000 22.022229 -6.995370 0.829146 68.438913 -5.564084 -15.733265 3.791309 22.415110 0.015155 5.525948 7.421038 0.358613 0.059856 -0.069190 -0.000000 0.000000 0.000000 0.000000 0.000000 0.000000 0.000000 
-8.616191 16.634875 0.917519 -149.682193 87.669168 -132.754695 -12.746393 2.600789 -1.905364 -0.777070 3.286630 -4.842863 -0.088150 2.482364 37.745848 1.768127 11.026020 5.966551 2.216500 -0.000000 -63.892600 8.051435 0.829997 0.434357 4.215117 0.457205 -41.196861 2.356893 -1.182409 17.682508 0.371166 1.720237 12.213127 0.019901 0.000000 -53.805500 7.377870 -3.383752 3.145731 0.274978 -3.814760 -1.951954 -8.526441 -3.737095 1.689681 9.777525 -7.275034 -6.529545 -4.954881 -0.369340 0.132795 0.000000 0.000000 0.000000 -0.234533 6.953772 2.696494 -37.649200 -8.685541 3.715214 -1.385719 -72.959832 0.027476 -10.270398 2.027047 -0.167740 -0.016545 0.147999 0.000000 0.000000 0.000000 0.000000 0.000000 0.000000 0.000000 22.138195 -6.599019 0.829519 68.162194 -4.475044 -15.691664 3.797757 21.667202 0.015035 5.334193 7.472510 0.348409 0.059899 -0.069828 -0.000000 0.000000 0.000000 0.000000 0.000000 0.000000 0.000000 
